<?xml version="1.0" encoding="utf-8"?>
<!-- Generator: Adobe Illustrator 17.1.0, SVG Export Plug-In . SVG Version: 6.00 Build 0)  -->
<!DOCTYPE svg PUBLIC "-//W3C//DTD SVG 1.1//EN" "http://www.w3.org/Graphics/SVG/1.1/DTD/svg11.dtd">
<svg version="1.1" id="Layer_1" xmlns="http://www.w3.org/2000/svg" xmlns:xlink="http://www.w3.org/1999/xlink" x="0px" y="0px"
	 viewBox="0 0 600 600" enable-background="new 0 0 600 600" xml:space="preserve">
<rect y="106.5" fill="#FFFFFF" width="600" height="377"/>
<g>
	<path fill="none" stroke="#0E0E0E" stroke-width="1.3295" stroke-miterlimit="10" d="M51.5,364.2c0,6.4-9.5,6.4-9.5,0
		C42,357.8,51.5,357.8,51.5,364.2"/>
	<path fill="none" stroke="#0E0E0E" stroke-width="1.3295" stroke-miterlimit="10" d="M56.9,387.4c0,0.8-0.5,1.6-1.1,2l-0.2-0.7
		l-1.1,0.3l0.2,0.5c-0.5,0-0.8-0.3-1.1-0.5l-4.9-4.9l-0.5-1l-2.1-3.8l-1.3,6.9l-0.2,0.8l3.9,8.5l0.5,1.1l0.2,0.2l0.3,0.7l2.3,6.7
		l1.6,4.8v0.3c0,1.3-1.1,2.5-2.5,2.5c-1.3,0-2.1-1.1-2.1-1.1l-0.2-0.7l-3.8-11l-4.3-9.2v-0.2v0.2l-0.7,8.2l-0.2,1.3l-0.7,1l-6.7,9.5
		l-0.2,0.3c-0.5,0.5-1.1,0.8-1.8,0.8c-1.3,0-2.5-1.1-2.5-2.5c0-0.3,0-0.7,0.2-0.8l0.8-1l6.2-8.7l0.7-13l0.3-1.5l1.5-5.8l-3.3,3.3
		l-2,7.4c-0.2,1-1,1.6-2.1,1.6s-2.1-1-2.1-2.1c0-0.3,0-0.5,0.2-0.8l2.1-8.5l8.2-8.2c0.7-0.7,1.6-1,2.6-1c0.7,0,1.1,0.2,1.6,0.3
		l2,0.7h0.3c1.1,0.3,2,1.1,2.5,2.1l3.6,7.7v0.2l5.1,5.1C56.8,386.4,56.9,386.9,56.9,387.4L56.9,387.4z"/>
	<path fill="none" stroke="#0E0E0E" stroke-width="1.3295" stroke-miterlimit="10" d="M55.6,389.2c-0.3,0.2-0.7,0.2-0.8,0.2h-0.3
		l-0.2-0.5l1.1-0.3L55.6,389.2z"/>
	<line fill="none" stroke="#0E0E0E" stroke-width="1.3295" stroke-miterlimit="10" x1="48.7" y1="396.7" x2="48.7" y2="396.6"/>
	<polyline fill="none" stroke="#0E0E0E" stroke-width="1.3295" stroke-miterlimit="10" points="51.3,404.5 63.5,404.5 64.3,396.6 	
		"/>
	<polygon fill="none" stroke="#0E0E0E" stroke-width="1.3295" stroke-miterlimit="10" points="56.4,396.6 48.5,396.6 48.1,395.4 
		56.1,395.4 	"/>
	<polygon fill="none" stroke="#0E0E0E" stroke-width="1.3295" stroke-miterlimit="10" points="65.6,395.4 65.6,396.6 57.6,396.6 
		57.4,395.4 	"/>
	<polygon fill="none" stroke="#0E0E0E" stroke-width="1.3295" stroke-miterlimit="10" points="57.6,396.6 56.6,396.9 56.4,396.6 
		56.1,395.4 55.5,393.1 55.5,392.6 54.5,389.5 54.5,388.8 55.5,388.5 55.6,389.2 56.4,392.3 56.8,393 57.4,395.4 	"/>
	<line fill="none" stroke="#0E0E0E" stroke-width="1.3295" stroke-miterlimit="10" x1="51.8" y1="398.5" x2="51.8" y2="401.8"/>
	<line fill="none" stroke="#0E0E0E" stroke-width="1.3295" stroke-miterlimit="10" x1="54.3" y1="398.5" x2="54.3" y2="401.8"/>
	<line fill="none" stroke="#0E0E0E" stroke-width="1.3295" stroke-miterlimit="10" x1="56.9" y1="398.5" x2="56.9" y2="401.8"/>
	<line fill="none" stroke="#0E0E0E" stroke-width="1.3295" stroke-miterlimit="10" x1="59.4" y1="398.5" x2="59.4" y2="401.8"/>
</g>
<g>
	<path d="M304.3,378.3l-4.1-4.1l1.6-1.6l2.5,2.5l6.4-6.4l1.6,1.6L304.3,378.3z M248.2,409.7l-4.1-4.1l1.6-1.6l2.5,2.5l6.4-6.4
		l1.6,1.6L248.2,409.7z M183,377.8l-4.1-4.1l1.6-1.6l2.5,2.5l6.4-6.4l1.6,1.6L183,377.8z M123.1,350.7l-0.2-0.2l-0.2,0.2l-4.1-4.1
		l1.6-1.6l0.2,0.2l0.2-0.2l2.3,2.3l6.2-6.1l0.2,0.2l0.2-0.2l1.6,1.6L123.1,350.7z M74.6,378.7l-4.1-4.1l1.6-1.6l2.5,2.5l6.4-6.4
		l1.6,1.6L74.6,378.7z M314,365.1c-4.7-4.7-12.4-4.7-17.2,0c-4.2,4.2-4.7,10.6-1.5,15.3c-12.7,11.2-24.1,17.6-34.6,20.6
		c-0.6-1.7-1.5-3.3-2.8-4.6c-4.7-4.7-12.4-4.7-17.2,0c-1.6,1.6-2.7,3.7-3.2,5.8c-15.2-2.8-28.8-12.3-42.5-22.9
		c2.7-4.6,2.1-10.6-1.9-14.6c-4.6-4.7-12.1-4.7-16.9-0.2c-12.6-9.5-25.6-17.7-40.1-19.9c-0.3-2.6-1.4-5-3.4-7
		c-4.7-4.7-12.4-4.7-17.2,0c-2.5,2.5-3.7,5.9-3.5,9.2c-9.1,3-18.7,8.6-29.2,17.6c-4.7-3.5-11.4-3.1-15.7,1.2
		c-4.7,4.7-4.7,12.4,0,17.2s12.4,4.7,17.2,0c4.2-4.2,4.7-10.7,1.4-15.4c9.8-8.4,18.8-13.7,27.2-16.5c0.6,1.5,1.5,2.8,2.7,4
		c4.7,4.7,12.4,4.7,17.2,0c1.7-1.7,2.8-3.8,3.3-6.1c13.5,2.1,25.7,9.8,37.8,19.1c-2.4,4.6-1.7,10.3,2.1,14.1
		c4.5,4.5,11.7,4.7,16.5,0.6c14,11,28.4,21,44.8,23.9c0.3,2.7,1.4,5.3,3.4,7.3c4.7,4.7,12.4,4.7,17.2,0c2.4-2.4,3.5-5.5,3.6-8.5
		c11.2-3.1,23.3-9.9,36.7-21.7c4.8,3.6,11.5,3.3,15.9-1C318.8,377.5,318.8,369.9,314,365.1L314,365.1z"/>
	<path d="M534.2,378.3l-4.1-4.1l1.6-1.6l2.5,2.5l6.4-6.4l1.6,1.6L534.2,378.3z M478.1,409.7l-4.1-4.1l1.6-1.6l2.5,2.5l6.4-6.4
		l1.6,1.6L478.1,409.7z M412.9,377.8l-4.1-4.1l1.6-1.6l2.5,2.5l6.4-6.4l1.6,1.6L412.9,377.8z M353,350.7l-0.2-0.2l-0.2,0.2l-4.1-4.1
		l1.6-1.6l0.2,0.2l0.2-0.2l2.3,2.3l6.2-6.1l0.2,0.2l0.2-0.2l1.6,1.6L353,350.7z M304.5,378.7l-4.1-4.1l1.6-1.6l2.5,2.5l6.4-6.4
		l1.6,1.6L304.5,378.7z M543.9,365.1c-4.7-4.7-12.4-4.7-17.2,0c-4.2,4.2-4.7,10.6-1.5,15.3c-12.7,11.2-24.1,17.6-34.6,20.6
		c-0.6-1.7-1.5-3.3-2.8-4.6c-4.7-4.7-12.4-4.7-17.2,0c-1.6,1.6-2.7,3.7-3.2,5.8c-15.2-2.8-28.8-12.3-42.5-22.9
		c2.7-4.6,2.1-10.6-1.9-14.6c-4.6-4.7-12.1-4.7-16.9-0.2c-12.6-9.5-25.6-17.7-40.1-19.9c-0.3-2.6-1.4-5-3.4-7
		c-4.7-4.7-12.4-4.7-17.2,0c-2.5,2.5-3.7,5.9-3.5,9.2c-9.1,3-18.7,8.6-29.2,17.6c-4.7-3.5-11.4-3.1-15.7,1.2
		c-4.7,4.7-4.7,12.4,0,17.2c4.7,4.7,12.4,4.7,17.2,0c4.2-4.2,4.7-10.7,1.4-15.4c9.8-8.4,18.8-13.7,27.2-16.5c0.6,1.5,1.5,2.8,2.7,4
		c4.7,4.7,12.4,4.7,17.2,0c1.7-1.7,2.8-3.8,3.3-6.1c13.5,2.1,25.7,9.8,37.8,19.1c-2.4,4.6-1.7,10.3,2.1,14.1
		c4.5,4.5,11.7,4.7,16.5,0.6c14,11,28.4,21,44.8,23.9c0.3,2.7,1.4,5.3,3.4,7.3c4.7,4.7,12.4,4.7,17.2,0c2.4-2.4,3.5-5.5,3.6-8.5
		c11.2-3.1,23.3-9.9,36.7-21.7c4.8,3.6,11.5,3.3,15.9-1C548.6,377.5,548.6,369.9,543.9,365.1L543.9,365.1z"/>
</g>
<line fill="none" stroke="#0E0E0E" stroke-width="2" stroke-miterlimit="10" x1="74" y1="361.5" x2="74" y2="317.5"/>
<line fill="none" stroke="#0E0E0E" stroke-width="2" stroke-miterlimit="10" x1="123" y1="339.5" x2="123" y2="256.5"/>
<line fill="none" stroke="#0E0E0E" stroke-width="2" stroke-miterlimit="10" x1="182" y1="291.5" x2="182" y2="363.5"/>
<line fill="none" stroke="#0E0E0E" stroke-width="2" stroke-miterlimit="10" x1="306" y1="291.5" x2="306" y2="369.5"/>
<line fill="none" stroke="#0E0E0E" stroke-width="2" stroke-miterlimit="10" x1="250" y1="400.5" x2="250" y2="338.5"/>
<line fill="none" stroke="#0E0E0E" stroke-width="2" stroke-miterlimit="10" x1="354" y1="333.5" x2="354" y2="227.5"/>
<line fill="none" stroke="#0E0E0E" stroke-width="2" stroke-miterlimit="10" x1="415" y1="303.5" x2="415" y2="363.5"/>
<line fill="none" stroke="#0E0E0E" stroke-width="1.6903" stroke-miterlimit="10" x1="478" y1="339.5" x2="478" y2="399.5"/>
<line fill="none" stroke="#0E0E0E" stroke-width="2" stroke-miterlimit="10" x1="536" y1="363.5" x2="536" y2="283.5"/>
<text transform="matrix(1 0 0 1 46.7344 292.4806)" enable-background="new    "><tspan x="0" y="0" fill="#010101" font-family="'MyriadPro-Regular'" font-size="14.1327">Evaluate </tspan><tspan x="0" y="17" fill="#010101" font-family="'MyriadPro-Regular'" font-size="14.1327">purpose</tspan></text>
<text transform="matrix(1 0 0 1 84.7159 245.1838)" fill="#010101" font-family="'MyriadPro-Regular'" font-size="14.1327">Consider frameworks</text>
<text transform="matrix(1 0 0 1 279.7618 284.048)" fill="#010101" font-family="'MyriadPro-Regular'" font-size="14.1327">Build app</text>
<text transform="matrix(1 0 0 1 148.3087 284.048)" fill="#010101" font-family="'MyriadPro-Regular'" font-size="14.1327">Register on site</text>
<text transform="matrix(1 0 0 1 211.463 330.8625)" fill="#010101" font-family="'MyriadPro-Regular'" font-size="14.1327">Consult docs</text>
<text transform="matrix(1 0 0 1 329.8253 220.4513)" fill="#010101" font-family="'MyriadPro-Regular'" font-size="14.1327">Test app</text>
<text transform="matrix(1 0 0 1 393.4219 298.1808)" fill="#010101" font-family="'MyriadPro-Regular'" font-size="14.1327">Submit app</text>
<text transform="matrix(1 0 0 1 442.6026 333.4806)" fill="#010101" font-family="'MyriadPro-Regular'" font-size="14.1327">Promote app</text>
<text transform="matrix(1 0 0 1 511.7833 257.215)" enable-background="new    "><tspan x="0" y="0" fill="#010101" font-family="'MyriadPro-Regular'" font-size="14.1327">Evaluate </tspan><tspan x="0" y="17" fill="#010101" font-family="'MyriadPro-Regular'" font-size="14.1327">analytics</tspan></text>
<text transform="matrix(1 0 0 1 207.7501 158.631)" fill="#010101" font-family="'MyriadPro-Regular'" font-size="26.25">Customer Journey</text>
</svg>
